PathFileType	4	(X/Y/Z)	E:\Qualisys_Data\Carbon_Farble_Plate\Data\Amateur_Runner\S2\T3\S2T3V11_c3d.trc
DataRate	CameraRate	NumFrames	NumMarkers	Units	OrigDataRate	OrigDataStartFrame	OrigNumFrames
200.000000	200.000000	4	39	mm	200.000000	40	324
Frame#	Time	LSHO			RSHO			LICST			RICST			LASIS			LHEEL			RASIS			LTROC			RTROC			SACR			LTH1			LSK4			LTH2			LTH3			RHM5			LSK2			LTH4			RTH1			LTOE			RTH2			RTH3			RTH4			LLEP			RLEP			LSK1			LSK3			RSK1			LHM5			RSK2			LFT1			RSK3			RSK4			LLME			RLME			RTOE			RHEEL			RFT1			RFT2			LFT2			
		X1	Y1	Z1	X2	Y2	Z2	X3	Y3	Z3	X4	Y4	Z4	X5	Y5	Z5	X6	Y6	Z6	X7	Y7	Z7	X8	Y8	Z8	X9	Y9	Z9	X10	Y10	Z10	X11	Y11	Z11	X12	Y12	Z12	X13	Y13	Z13	X14	Y14	Z14	X15	Y15	Z15	X16	Y16	Z16	X17	Y17	Z17	X18	Y18	Z18	X19	Y19	Z19	X20	Y20	Z20	X21	Y21	Z21	X22	Y22	Z22	X23	Y23	Z23	X24	Y24	Z24	X25	Y25	Z25	X26	Y26	Z26	X27	Y27	Z27	X28	Y28	Z28	X29	Y29	Z29	X30	Y30	Z30	X31	Y31	Z31	X32	Y32	Z32	X33	Y33	Z33	X34	Y34	Z34	X35	Y35	Z35	X36	Y36	Z36	X37	Y37	Z37	X38	Y38	Z38	X39	Y39	Z39	

41	0.2	-1890.0302734375	1421.319702148438	-470.3533325195312	-1901.94677734375	1384.134521484375	-147.7814483642578	-1975.362426757812	955.56396484375	-472.9397583007812	-1975.546264648438	951.1759033203124	-166.769775390625	-1914.43798828125	909.0538940429688	-455.5621948242188	-2270.076904296875	392.3680725097656	-362.9866638183594	-1908.153442382812	915.7322998046876	-191.1717224121094	-2039.127563476562	823.9381103515625	-462.0867004394531	-2048.5654296875	849.8743896484375	-166.9563140869141	-2063.045166015625	997.7943115234376	-323.8744506835938	-1860.966064453125	612.3239135742188	-492.3297119140625	-2095.929931640625	430.3492431640625	-456.6137390136719	-1943.071533203125	593.1986083984375	-490.4136962890625	-1836.482543945312	512.375732421875	-479.2998962402344	-1971.305419921875	74.20956420898438	-207.5048370361328	-2007.332763671875	461.298095703125	-483.5055541992188	-1920.955444335938	494.6756896972656	-473.780029296875	-1869.643920898438	602.9428100585938	-171.3466949462891	-2213.7236328125	154.518798828125	-415.9745483398438	-1947.714721679688	590.46630859375	-167.2182769775391	-1855.81640625	505.9739685058594	-198.3112487792969	-1935.642822265625	496.4273376464844	-190.3115081787109	-1879.198486328125	461.0452880859375	-481.3236083984375	-1902.48876953125	463.5568542480469	-190.8286285400391	-1979.039794921875	383.028076171875	-474.6933288574219	-2074.2880859375	354.9532470703125	-460.0842590332031	-1909.488159179688	336.1676635742188	-199.8467102050781	-2257.3720703125	214.0890502929688	-461.009033203125	-1978.82373046875	372.0419006347656	-180.0007934570312	-2289.0791015625	371.8023986816406	-332.5836791992188	-1957.334106445312	247.8450317382812	-213.6616973876953	-2025.11767578125	284.4652709960938	-193.8314056396484	-2247.93310546875	344.0411682128906	-423.9471130371094	-2081.58984375	114.0319442749023	-231.490966796875	-1907.257690429688	74.45660400390625	-264.6690979003906	-2152.886962890625	106.8566513061523	-290.0848083496094	-2144.1728515625	75.52537536621094	-315.6448364257812	-2158.0712890625	83.3174057006836	-266.881591796875	-2301.6328125	382.4686584472656	-382.9686584472656
42	0.205	-1877.139282226562	1424.051513671875	-471.4058532714844	-1885.638427734375	1386.392944335938	-149.3895416259766	-1959.591796875	957.4674072265624	-473.0441284179688	-1959.944580078125	952.902099609375	-166.2886962890625	-1899.651000976562	911.4649658203124	-455.6170959472656	-2246.146484375	385.6799011230469	-362.6446533203125	-1892.6767578125	916.8958740234376	-191.4490356445312	-2024.30712890625	826.1719970703125	-462.9842224121094	-2033.463134765625	851.6922607421875	-166.8499450683594	-2047.133911132812	999.2740478515624	-322.6285705566406	-1841.391967773438	616.4337768554688	-493.0299377441406	-2072.10546875	429.3750915527344	-456.3121032714844	-1922.588134765625	595.9796752929688	-490.6852111816406	-1815.425903320312	516.623291015625	-478.5547790527344	-1970.7646484375	74.30799865722656	-206.8742828369141	-1978.037109375	459.2730102539062	-476.4394836425781	-1899.232666015625	497.9464721679688	-473.4000549316406	-1861.726928710938	599.1863403320312	-170.5738067626953	-2181.420166015625	150.6253051757812	-416.4347534179688	-1939.365234375	590.1126708984375	-167.3842163085938	-1850.330444335938	502.7996520996094	-198.3435821533203	-1930.844848632812	496.2286682128906	-190.8127899169922	-1856.943237304688	464.3781433105469	-480.322998046875	-1897.312255859375	462.4398193359375	-190.0959930419922	-1953.736694335938	384.3438415527344	-473.1924743652344	-2049.3603515625	354.5838317871094	-459.5719909667969	-1906.0458984375	336.4326782226562	-199.0295257568359	-2227.64892578125	209.3382263183594	-461.451416015625	-1975.717163085938	373.634521484375	-179.9350128173828	-2265.309814453125	364.8463134765625	-332.8171691894531	-1955.05810546875	248.2375030517578	-213.1928405761719	-2022.864379882812	285.8907470703125	-194.3087310791016	-2223.11279296875	339.3333129882812	-424.5044555664062	-2081.174560546875	114.8940277099609	-232.6781311035156	-1906.752563476562	74.05361938476562	-264.6285705566406	-2153.700927734375	108.3716354370117	-289.0812377929688	-2144.77880859375	78.24787139892578	-315.004638671875	-2157.27099609375	84.26721954345703	-266.2412414550781	-2278.149658203125	375.2944641113281	-383.8280029296875
43	0.21	-1863.8193359375	1426.530517578125	-472.0192260742188	-1867.164794921875	1388.754150390625	-149.6937866210938	-1944.324340820312	960.18798828125	-473.2718505859375	-1942.61083984375	955.3765258789062	-166.2626037597656	-1884.472534179688	913.9341430664062	-455.6834411621094	-2225.50146484375	379.98583984375	-366.1979064941406	-1876.484008789062	918.015625	-191.0802154541016	-2008.421875	828.8790893554688	-463.2855224609375	-2018.28369140625	853.8008422851562	-166.7155303955078	-2031.70068359375	1001.684936523438	-322.5881042480469	-1821.284057617188	621.247802734375	-492.9121398925781	-2048.568603515625	428.0979309082031	-455.8165893554688	-1902.437255859375	598.81005859375	-490.6342163085938	-1793.979614257812	522.11328125	-477.8626708984375	-1971.710327148438	73.91080474853516	-207.8210296630859	-1956.819702148438	461.2418212890625	-476.4929809570312	-1877.89599609375	502.3141784667969	-473.0548095703125	-1854.226196289062	597.8162841796875	-170.2534942626953	-2148.979248046875	146.8054809570312	-416.7034606933594	-1931.256103515625	590.8073120117188	-167.5182342529297	-1845.6875	500.398681640625	-198.6899719238281	-1925.933837890625	496.6236572265625	-190.4665222167969	-1834.443481445312	468.6532287597656	-479.3652648925781	-1892.261596679688	462.9311828613281	-190.1935882568359	-1929.2578125	386.1275329589844	-472.5842895507812	-2024.10009765625	353.8516235351562	-459.2167053222656	-1902.133422851562	337.052734375	-199.1279754638672	-2197.001708984375	203.2618713378906	-462.2658996582031	-1971.304077148438	374.8819885253906	-179.9808197021484	-2241.484130859375	357.5492858886719	-333.653076171875	-1952.169799804688	249.6797332763672	-212.8334808349609	-2019.583984375	288.1722106933594	-194.435546875	-2197.53466796875	333.6027526855469	-424.5812377929688	-2079.65869140625	116.4809188842773	-232.3771820068359	-1906.73583984375	73.61921691894531	-264.7022094726562	-2151.8515625	110.118896484375	-289.7734375	-2142.22216796875	79.93492126464844	-315.4393920898438	-2157.37060546875	85.66553497314453	-266.4064636230469	-2254.241455078125	368.1553344726562	-384.7460021972656
44	0.215	-1851.448974609375	1430.125854492188	-472.8897094726562	-1849.526000976562	1391.639038085938	-151.0730743408203	-1928.744750976562	962.9122924804688	-473.2595520019531	-1927.454833984375	957.8685302734376	-166.8311309814453	-1868.679443359375	916.7587280273438	-455.2850341796875	-2202.66552734375	373.98046875	-366.4528198242188	-1860.412841796875	919.5790405273438	-191.6620483398438	-1992.239379882812	832.4163818359375	-464.6067199707031	-2002.825561523438	856.31298828125	-166.6311950683594	-2016.346313476562	1004.766174316406	-322.0975341796875	-1801.753051757812	625.7786865234375	-492.8812255859375	-2025.942260742188	427.1541137695312	-455.9881896972656	-1883.288940429688	603.5543823242188	-490.73876953125	-1772.969482421875	527.2161254882812	-476.7332763671875	-1970.917236328125	74.67810821533203	-207.4499969482422	-1934.771728515625	462.8898620605469	-475.6226501464844	-1856.07861328125	506.197265625	-472.0477905273438	-1845.76220703125	596.2643432617188	-169.7602233886719	-2115.934814453125	142.7547607421875	-417.2733459472656	-1922.477661132812	591.7874755859375	-167.3246002197266	-1839.624389648438	499.0161437988281	-198.6721649169922	-1920.40234375	497.1592407226562	-190.2191619873047	-1812.783813476562	473.6718139648438	-478.7222290039062	-1886.660034179688	463.8645935058594	-189.9563446044922	-1904.582641601562	388.2374877929688	-472.6239624023438	-1999.28369140625	353.81591796875	-458.8732604980469	-1897.837524414062	338.1828002929688	-198.8982696533203	-2164.600341796875	198.0744171142578	-463.3038635253906	-1967.2373046875	376.330810546875	-179.2425842285156	-2218.22509765625	349.9494018554688	-334.15771484375	-1949.202270507812	250.6849975585938	-212.3523101806641	-2016.624633789062	290.0396728515625	-193.8363189697266	-2172.1015625	327.6976013183594	-425.0830688476562	-2078.927734375	118.5840682983398	-232.4754333496094	-1906.449951171875	73.54521179199219	-264.5865173339844	-2151.794189453125	110.9828109741211	-290.0370788574219	-2141.847412109375	81.31343078613281	-315.6485290527344	-2156.754638671875	86.13275146484375	-266.6922912597656	-2231.437744140625	358.9546813964844	-384.3739013671875
